<svg xmlns="http://www.w3.org/2000/svg" viewBox="0 0 24 24" id="internet"><g><path fill="#55abff" d="M18.36 19.36a1 1 0 0 1-.7-1.71 8 8 0 0 0 0-11.3 1 1 0 0 1 1.4-1.42 10 10 0 0 1 0 14.14A1 1 0 0 1 18.36 19.36zM5.64 19.36a1 1 0 0 1-.7-.29A10 10 0 0 1 2.72 8.27 1 1 0 0 1 4 7.72 1 1 0 0 1 4.58 9 7.67 7.67 0 0 0 4 12a7.91 7.91 0 0 0 2.34 5.65 1 1 0 0 1-.7 1.71zM12.71 13.71a1 1 0 0 1-.69-.27A1 1 0 0 1 12 12l0 0a1 1 0 0 1-1.42 0 1 1 0 0 1 0-1.41A2 2 0 0 1 12 10a2 2 0 0 1 2 2 2 2 0 0 1-.56 1.4A1 1 0 0 1 12.71 13.71z"></path><path fill="#55abff" d="M15.54 16.54a1 1 0 0 1-.7-.29 1 1 0 0 1 0-1.41 4 4 0 0 0 0-5.68 1 1 0 1 1 1.42-1.4 6 6 0 0 1 0 8.48A1 1 0 0 1 15.54 16.54zM8.46 16.54a1 1 0 0 1-.71-.3A6 6 0 0 1 6 12a1 1 0 0 1 2 0 4 4 0 0 0 1.17 2.84 1 1 0 0 1 0 1.41A1 1 0 0 1 8.46 16.54z"></path><path fill="#0078ee" d="M20,21a1,1,0,0,1-.71-.29l-16-16A1,1,0,0,1,4.71,3.29l16,16a1,1,0,0,1,0,1.42A1,1,0,0,1,20,21Z"></path></g></svg>